<svg width="33" height="34" fill="none" xmlns="http://www.w3.org/2000/svg"><path d="M22.38 20.002l-4.602-3.555V9.204c0-.728-.571-1.317-1.278-1.317-.707 0-1.278.59-1.278 1.317v7.901c0 .415.189.806.511 1.054l5.112 3.95a1.256 1.256 0 001.79-.265 1.34 1.34 0 00-.256-1.842z" fill="#fff"/><path d="M16.5 0C7.401 0 0 7.626 0 17c0 9.374 7.401 17 16.5 17S33 26.374 33 17c0-9.374-7.401-17-16.5-17zm0 31.366C8.812 31.366 2.556 24.921 2.556 17c0-7.92 6.256-14.366 13.944-14.366 7.689 0 13.944 6.445 13.944 14.366 0 7.92-6.256 14.366-13.944 14.366z" fill="#fff"/></svg>