<svg width="35" height="35" fill="none" xmlns="http://www.w3.org/2000/svg"><path d="M17.5 35a17.38 17.38 0 01-12.374-5.126A17.385 17.385 0 010 17.5c0-4.674 1.82-9.069 5.126-12.374A17.385 17.385 0 0117.5 0c4.674 0 9.07 1.82 12.374 5.126A17.386 17.386 0 0135 17.5c0 4.674-1.82 9.069-5.126 12.374A17.385 17.385 0 0117.5 35zm0-32.813c-8.443 0-15.313 6.87-15.313 15.313 0 8.443 6.87 15.313 15.313 15.313 8.443 0 15.313-6.87 15.313-15.313 0-8.443-6.87-15.313-15.313-15.313z" fill="#fff"/><path d="M17.5 16.406a2.737 2.737 0 01-2.734-2.734 2.738 2.738 0 012.734-2.735 2.738 2.738 0 012.734 2.735 1.094 1.094 0 102.188 0 4.93 4.93 0 00-3.828-4.798V7.656a1.094 1.094 0 00-2.188 0v1.218a4.93 4.93 0 00-3.828 4.798 4.928 4.928 0 004.922 4.922 2.737 2.737 0 012.734 2.734 2.738 2.738 0 01-2.734 2.735 2.738 2.738 0 01-2.734-2.735 1.094 1.094 0 10-2.188 0 4.93 4.93 0 003.828 4.798v1.218a1.094 1.094 0 002.188 0v-1.218a4.93 4.93 0 003.828-4.798 4.928 4.928 0 00-4.922-4.922z" fill="#fff"/></svg>