<svg width="37" height="36" fill="none" xmlns="http://www.w3.org/2000/svg"><g clip-path="url(#clip0)" fill="#fff"><path d="M11.977 28.177c.58.15 1.177-.186 1.332-.752l1.153-4.222 3.796-.356 1.45 4.64c.176.56.784.876 1.359.706.575-.17.9-.762.725-1.322l-1.323-4.232.27-.025c.598-.056 1.037-.574.98-1.156-.059-.582-.59-1.009-1.189-.953l-.707.067-2.567-8.213c-.317-1.013-1.813-.993-2.094.036l-2.415 8.84-1.954.184c-.598.056-1.036.573-.979 1.155.058.584.591 1.01 1.188.953l1.148-.108-.946 3.462a1.057 1.057 0 00.773 1.296zm4.308-11.644l1.327 4.246-2.553.24 1.226-4.486zm7.943-1.624c.602 0 1.09-.474 1.09-1.06v-2.275c1.273.072 1.217.07 1.27.07.572 0 1.051-.435 1.085-.998.035-.584-.424-1.085-1.024-1.119l-1.332-.075V8.15c0-.585-.487-1.06-1.089-1.06-.6 0-1.088.475-1.088 1.06v1.18l-1.206-.067c-.6-.034-1.115.412-1.15.996-.035.584.424 1.085 1.024 1.119l1.332.075v2.398c0 .585.487 1.059 1.088 1.059z"/><path d="M30.385 4.989a1.11 1.11 0 00-1.539-.046A1.04 1.04 0 0028.8 6.44c4.978 5.148 5.943 14.554 2.152 20.967-3.276 5.54-9.343 7.627-17.084 5.878-7.92-1.79-11.006-9.857-9.887-16.54C5.247 9.172 12.259.839 27.848 2.279c.599.054 1.13-.372 1.186-.955a1.066 1.066 0 00-.98-1.154C12.71-1.247 3.505 6.393 1.83 16.404.423 24.816 4.773 33.405 13.375 35.348c8.104 1.831 15.459-.113 19.463-6.885 4.216-7.132 3.212-17.615-2.453-23.474z"/></g><defs><clipPath id="clip0"><path fill="#fff" d="M0 0h37v36H0z"/></clipPath></defs></svg>