<svg width="35" height="35" fill="none" xmlns="http://www.w3.org/2000/svg"><g clip-path="url(#clip0)" fill="#fff"><path d="M34.7 27.037l-5.546-5.547-.114-1.406 1.528-.931c.432-.263.608-.803.413-1.27l-.689-1.652 1.166-1.358c.33-.384.33-.952 0-1.336l-1.166-1.359.689-1.652a1.025 1.025 0 00-.413-1.27l-1.528-.931.145-1.784a1.025 1.025 0 00-.785-1.08l-1.742-.414-.413-1.742a1.026 1.026 0 00-1.081-.785l-1.784.145-.932-1.529a1.026 1.026 0 00-1.27-.413l-1.652.69L18.168.247a1.025 1.025 0 00-1.336 0l-1.358 1.166-1.652-.69a1.025 1.025 0 00-1.27.413l-.931 1.529-1.785-.145a1.026 1.026 0 00-1.08.785l-.414 1.742L6.6 5.46a1.025 1.025 0 00-.785 1.08l.145 1.785-1.529.931a1.025 1.025 0 00-.413 1.27l.69 1.652-1.167 1.36c-.33.383-.33.95 0 1.335l1.166 1.358-.689 1.652a1.025 1.025 0 00.413 1.27l1.529.931-.115 1.406L.3 27.037a1.025 1.025 0 00.4 1.698l4.174 1.39 1.39 4.174a1.026 1.026 0 001.698.4l7.615-7.613 1.254 1.077c.383.328.95.331 1.336 0l1.255-1.078 7.614 7.614a1.025 1.025 0 001.698-.4l1.39-4.174 4.174-1.39a1.026 1.026 0 00.4-1.698zm-27.013 5.04l-1.03-3.087a1.026 1.026 0 00-.648-.648l-3.085-1.029 4.232-4.232 1.186.282.414 1.741c.117.493.577.826 1.08.785l1.785-.145.908 1.49-4.842 4.842zm14.27-7.94l-.802 1.317-1.423-.594a1.025 1.025 0 00-1.062.169l-1.17 1.004-1.17-1.004a1.025 1.025 0 00-1.062-.169l-1.423.594-.802-1.316a1.025 1.025 0 00-.959-.489l-1.536.125-.357-1.5a1.025 1.025 0 00-.76-.76l-1.5-.357.125-1.536a1.025 1.025 0 00-.489-.959l-1.316-.802.593-1.423c.15-.358.084-.769-.168-1.063l-1.004-1.17 1.004-1.17c.252-.293.317-.704.168-1.062l-.593-1.422 1.316-.803c.331-.202.52-.572.489-.958L7.93 7.252l1.5-.356c.376-.09.67-.384.76-.76l.356-1.5 1.537.124c.386.032.757-.158.959-.488l.802-1.317 1.423.594c.357.149.768.084 1.063-.169l1.17-1.004 1.17 1.004c.294.253.705.318 1.062.169l1.423-.594.802 1.317c.202.33.572.52.959.488l1.537-.125.356 1.5c.09.377.384.672.76.761l1.5.356-.125 1.537c-.031.386.158.757.489.958l1.317.803-.594 1.422c-.149.358-.084.769.169 1.063l1.004 1.17-1.004 1.17a1.025 1.025 0 00-.169 1.062l.594 1.423-1.317.802c-.331.202-.52.573-.489.959l.125 1.536-1.5.356c-.376.09-.67.384-.76.76l-.356 1.501-1.537-.125a1.025 1.025 0 00-.959.489zm7.034 4.204a1.026 1.026 0 00-.649.649l-1.028 3.086-4.842-4.842.908-1.49 1.784.145c.503.041.964-.292 1.08-.785l.415-1.742 1.185-.281 4.233 4.232-3.086 1.029z"/><path d="M25.913 11.284l-3.106-3.107c-.4-.4-1.05-.4-1.45 0l-4.955 4.955-2.21-2.21c-.4-.4-1.049-.4-1.45 0L9.637 14.03c-.4.4-.4 1.05 0 1.45l6.04 6.041c.401.4 1.05.4 1.45 0l8.787-8.786c.4-.4.4-1.05 0-1.45zm-9.511 8.061l-4.59-4.59 1.656-1.657 2.209 2.21c.4.4 1.05.4 1.45 0l4.955-4.956 1.656 1.657-7.336 7.336z"/></g><defs><clipPath id="clip0"><path fill="#fff" d="M0 0h35v35H0z"/></clipPath></defs></svg>