<svg width="39" height="29" fill="none" xmlns="http://www.w3.org/2000/svg"><path d="M38.15 13.989h-3.267c1.359-3.084 1.212-5.58.698-7.27C34.7 3.71 31.726.442 27.32.442c-1.175 0-2.35.22-3.561.661-2.093.771-3.488 1.616-4.112 2.056-.624-.44-1.983-1.285-4.112-2.056-1.212-.44-2.423-.66-3.562-.66-4.405 0-7.38 3.267-8.26 6.278-.514 1.799-.698 4.515 1.028 7.93H.776a.58.58 0 00-.588.587c0 .33.257.588.588.588h4.662c.184.33.404.66.661.991 3.818 5.507 12.116 11.492 13.621 11.859v.037s.037 0 .074-.037h.11v-.037c1.285-.624 9.252-5.764 13.437-11.859a13.5 13.5 0 001.028-1.652h3.855a.58.58 0 00.588-.587c0-.33-.33-.551-.661-.551zm-5.873 2.166c-3.892 5.69-11.052 10.28-12.594 11.271-1.578-.99-8.7-5.617-12.63-11.27l-.22-.331h5.397c.22 0 .441-.11.551-.33l2.46-4.847 3.855 9.876c.073.22.33.367.55.367h.037a.585.585 0 00.551-.44l3.378-11.565 1.799 5.837c.073.22.257.367.477.404.22.037.44-.073.588-.257l1.431-2.093 1.212 2.056c.11.184.294.294.514.294h3.304c-.22.367-.44.698-.66 1.028zm1.321-2.166H30l-1.505-2.57a.586.586 0 00-.514-.294c-.22 0-.404.074-.514.257l-1.248 1.836-2.02-6.572c-.073-.257-.33-.404-.587-.44a.628.628 0 00-.587.44L19.61 18.432l-3.708-9.473a.552.552 0 00-.514-.367c-.257 0-.44.11-.55.33l-2.901 5.691H6.099c-1.468-2.68-1.872-5.25-1.211-7.563.77-2.607 3.304-5.397 7.122-5.397 1.028 0 2.093.22 3.158.587 2.68.992 4.112 2.13 4.148 2.13a.56.56 0 00.735 0s1.432-1.138 4.148-2.13a8.876 8.876 0 013.158-.587c3.781 0 6.351 2.79 7.122 5.397.624 2.13.294 4.48-.88 6.939z" fill="#fff"/></svg>