<svg width="38" height="38" fill="none" xmlns="http://www.w3.org/2000/svg"><g clip-path="url(#clip0)"><path d="M2.486 2.646C-.5 5.748.11 9.043.11 19.053c0 8.312-1.45 16.645 6.14 18.607 2.37.61 23.372.61 25.739-.003 3.16-.815 5.731-3.379 6.083-7.849.049-.623.049-20.876-.002-21.512C37.698 3.535 34.767.79 30.905.235 30.02.107 29.843.069 25.302.06 9.194.069 5.664-.65 2.486 2.646z" fill="url(#paint0_linear)"/><path d="M19 8.01c-4.505 0-8.784-.4-10.418 3.79-.675 1.732-.577 3.98-.577 7.198 0 2.825-.09 5.48.577 7.197 1.63 4.193 5.944 3.791 10.416 3.791 4.314 0 8.763.45 10.417-3.791.676-1.748.577-3.963.577-7.197 0-4.292.237-7.063-1.847-9.144-2.109-2.107-4.962-1.843-9.15-1.843H19zm-.985 1.98c9.398-.014 10.595-1.058 9.934 13.445-.234 5.13-4.143 4.566-8.948 4.566-8.76 0-9.012-.25-9.012-9.008 0-8.858.695-8.997 8.026-9.005v.003zm6.855 1.825a1.319 1.319 0 10-.001 2.637 1.319 1.319 0 000-2.637zM19 13.355a5.645 5.645 0 00-5.646 5.643A5.644 5.644 0 0019 24.64a5.642 5.642 0 100-11.284zm0 1.98c4.846 0 4.852 7.326 0 7.326-4.844 0-4.851-7.325 0-7.325z" fill="#fff"/></g><defs><linearGradient id="paint0_linear" x1="2.559" y1="35.634" x2="37.876" y2="5.067" gradientUnits="userSpaceOnUse"><stop stop-color="#FD5"/><stop offset=".5" stop-color="#FF543E"/><stop offset="1" stop-color="#C837AB"/></linearGradient><clipPath id="clip0"><rect width="38" height="38" rx="19" fill="#fff"/></clipPath></defs></svg>