<svg width="440" height="166" fill="none" xmlns="http://www.w3.org/2000/svg"><path d="M0 140.041L47.955 113 97 138.959 46.865 166 0 140.041z" fill="#4DF317"/><path d="M0 116.113L47.955 89 97 138.887 46.865 166 0 116.113z" fill="#1DB61E"/><path d="M0 116l47.955-27L97 116l-50.135 27L0 116z" fill="#4DF317"/><path d="M0 93.113L47.955 66 97 115.887 46.865 143 0 93.113z" fill="#1DB61E"/><path d="M0 93.451L48 66l48 27.451L48 122 0 93.451z" fill="#4DF317"/><path d="M161.1 92.9c0 .333-.133.633-.4.9-.2.2-.467.3-.8.3H139c-.333 0-.5.167-.5.5v15.8c0 .333.167.5.5.5h12c.333 0 .6.133.8.4.267.2.4.467.4.8v9.7c0 .333-.133.633-.4.9-.2.2-.467.3-.8.3h-12c-.333 0-.5.167-.5.5v15.9c0 .333.167.5.5.5h20.9c.333 0 .6.133.8.4.267.2.4.467.4.8v9.7c0 .333-.133.633-.4.9-.2.2-.467.3-.8.3h-34.3c-.333 0-.633-.1-.9-.3-.2-.267-.3-.567-.3-.9V83.2c0-.333.1-.6.3-.8.267-.267.567-.4.9-.4h34.3c.333 0 .6.133.8.4.267.2.4.467.4.8v9.7zm20.648 59.1c-.734 0-1.167-.367-1.3-1.1l-14.3-67.6-.1-.4c0-.6.366-.9 1.1-.9h12.9c.8 0 1.233.367 1.3 1.1l6.9 44c.066.267.166.4.3.4.133 0 .233-.133.3-.4l6.7-44c.066-.733.5-1.1 1.3-1.1h12.5c.866 0 1.2.433 1 1.3l-14.4 67.6c-.134.733-.567 1.1-1.3 1.1h-12.9zm72.028-59.1c0 .333-.134.633-.4.9-.2.2-.467.3-.8.3h-20.9c-.334 0-.5.167-.5.5v15.8c0 .333.166.5.5.5h12c.333 0 .6.133.8.4.266.2.4.467.4.8v9.7c0 .333-.134.633-.4.9-.2.2-.467.3-.8.3h-12c-.334 0-.5.167-.5.5v15.9c0 .333.166.5.5.5h20.9c.333 0 .6.133.8.4.266.2.4.467.4.8v9.7c0 .333-.134.633-.4.9-.2.2-.467.3-.8.3h-34.3c-.334 0-.634-.1-.9-.3-.2-.267-.3-.567-.3-.9V83.2c0-.333.1-.6.3-.8.266-.267.566-.4.9-.4h34.3c.333 0 .6.133.8.4.266.2.4.467.4.8v9.7zm34.747 59.1c-.733 0-1.2-.333-1.4-1l-7.7-27.6c-.133-.267-.3-.4-.5-.4h-3.4c-.333 0-.5.167-.5.5v27.3c0 .333-.133.633-.4.9-.2.2-.466.3-.8.3h-11.7c-.333 0-.633-.1-.9-.3-.2-.267-.3-.567-.3-.9V83.2c0-.333.1-.6.3-.8.267-.267.567-.4.9-.4h20.2c3.667 0 6.934.9 9.8 2.7 2.867 1.733 5.067 4.2 6.6 7.4 1.6 3.2 2.4 6.867 2.4 11 0 3.933-.766 7.4-2.3 10.4-1.466 3-3.533 5.333-6.2 7a.66.66 0 00-.3.3c-.066.067-.066.167 0 .3l9.2 29.5.1.4c0 .667-.366 1-1.1 1h-12zm-13-57.9c-.333 0-.5.167-.5.5v17.1c0 .333.167.5.5.5h4.5c2.067 0 3.734-.8 5-2.4 1.334-1.667 2-3.867 2-6.6 0-2.8-.666-5-2-6.6-1.266-1.667-2.933-2.5-5-2.5h-4.5zm69.171-1.2c0 .333-.134.633-.4.9-.2.2-.467.3-.8.3h-20.9c-.334 0-.5.167-.5.5v15.8c0 .333.166.5.5.5h12c.333 0 .6.133.8.4.266.2.4.467.4.8v9.7c0 .333-.134.633-.4.9-.2.2-.467.3-.8.3h-12c-.334 0-.5.167-.5.5v15.9c0 .333.166.5.5.5h20.9c.333 0 .6.133.8.4.266.2.4.467.4.8v9.7c0 .333-.134.633-.4.9-.2.2-.467.3-.8.3h-34.3c-.334 0-.634-.1-.9-.3-.2-.267-.3-.567-.3-.9V83.2c0-.333.1-.6.3-.8.266-.267.566-.4.9-.4h34.3c.333 0 .6.133.8.4.266.2.4.467.4.8v9.7zm25.147 59.9c-3.866 0-7.266-.767-10.2-2.3-2.933-1.533-5.2-3.667-6.8-6.4-1.6-2.8-2.4-6-2.4-9.6v-2.9c0-.333.1-.6.3-.8.267-.267.567-.4.9-.4h11.5c.334 0 .6.133.8.4.267.2.4.467.4.8v2.2c0 2.067.534 3.733 1.6 5 1.067 1.267 2.4 1.9 4 1.9s2.934-.6 4-1.8c1.067-1.2 1.6-2.767 1.6-4.7 0-2-.666-3.7-2-5.1-1.333-1.467-3.933-3.6-7.8-6.4-3.333-2.4-6.033-4.533-8.1-6.4-2.066-1.867-3.833-4.167-5.3-6.9-1.466-2.733-2.2-5.9-2.2-9.5 0-5.667 1.767-10.2 5.3-13.6 3.534-3.4 8.2-5.1 14-5.1 5.867 0 10.567 1.767 14.1 5.3 3.6 3.533 5.4 8.167 5.4 13.9v2.4c0 .333-.133.633-.4.9-.2.2-.466.3-.8.3h-11.5c-.333 0-.633-.1-.9-.3-.2-.267-.3-.567-.3-.9v-2.7c0-2.067-.533-3.7-1.6-4.9-1-1.267-2.333-1.9-4-1.9-1.6 0-2.9.6-3.9 1.8-1 1.133-1.5 2.733-1.5 4.8 0 2 .634 3.767 1.9 5.3 1.267 1.533 3.767 3.667 7.5 6.4 4.134 3.067 7.234 5.567 9.3 7.5 2.134 1.867 3.767 3.967 4.9 6.3 1.2 2.267 1.8 5 1.8 8.2 0 5.867-1.8 10.533-5.4 14-3.6 3.467-8.333 5.2-14.2 5.2zM434.489 82c.333 0 .6.133.8.4.267.2.4.467.4.8v9.7c0 .333-.133.633-.4.9-.2.2-.467.3-.8.3h-12.5c-.333 0-.5.167-.5.5v56.2c0 .333-.133.633-.4.9-.2.2-.467.3-.8.3h-11.7c-.333 0-.633-.1-.9-.3-.2-.267-.3-.567-.3-.9V94.6c0-.333-.167-.5-.5-.5h-12c-.333 0-.633-.1-.9-.3-.2-.267-.3-.567-.3-.9v-9.7c0-.333.1-.6.3-.8.267-.267.567-.4.9-.4h39.6zM178.6 40V11.44h22.6V40h-6.04V16.48h-10.52V40h-6.04zm38.325-22.24c3.013 0 5.4.867 7.16 2.6 1.76 1.707 2.64 4.147 2.64 7.32v2.88h-14.08c.053 1.68.546 3 1.48 3.96.96.96 2.28 1.44 3.96 1.44 1.413 0 2.693-.133 3.84-.4a19.482 19.482 0 003.56-1.32v4.6c-1.067.533-2.2.92-3.4 1.16-1.174.267-2.6.4-4.28.4-2.187 0-4.12-.4-5.8-1.2-1.68-.827-3-2.067-3.96-3.72s-1.44-3.733-1.44-6.24c0-2.56.426-4.68 1.28-6.36.88-1.707 2.093-2.987 3.64-3.84 1.546-.853 3.346-1.28 5.4-1.28zm.04 4.24c-1.147 0-2.107.373-2.88 1.12-.747.747-1.187 1.907-1.32 3.48h8.36c-.027-1.333-.374-2.427-1.04-3.28-.667-.88-1.707-1.32-3.12-1.32zm26.753-4.24c2.453 0 4.44.96 5.96 2.88 1.52 1.893 2.279 4.693 2.279 8.4 0 3.707-.786 6.533-2.359 8.48-1.574 1.92-3.587 2.88-6.04 2.88-1.574 0-2.827-.28-3.76-.84-.934-.587-1.694-1.24-2.28-1.96h-.32c.213 1.12.32 2.187.32 3.2v8.8h-5.96V18.16h4.84l.84 2.84h.28c.586-.88 1.373-1.64 2.36-2.28.986-.64 2.266-.96 3.84-.96zm-1.92 4.76c-1.547 0-2.64.48-3.28 1.44-.614.96-.947 2.427-1 4.4V29c0 2.107.306 3.733.92 4.88.64 1.12 1.786 1.68 3.44 1.68 1.36 0 2.36-.56 3-1.68.666-1.147 1-2.787 1-4.92 0-4.293-1.36-6.44-4.08-6.44zm24.072-4.76c3.013 0 5.4.867 7.16 2.6 1.76 1.707 2.64 4.147 2.64 7.32v2.88h-14.08c.053 1.68.547 3 1.48 3.96.96.96 2.28 1.44 3.96 1.44 1.413 0 2.693-.133 3.84-.4 1.147-.293 2.333-.733 3.56-1.32v4.6c-1.067.533-2.2.92-3.4 1.16-1.173.267-2.6.4-4.28.4-2.187 0-4.12-.4-5.8-1.2-1.68-.827-3-2.067-3.96-3.72s-1.44-3.733-1.44-6.24c0-2.56.427-4.68 1.28-6.36.88-1.707 2.093-2.987 3.64-3.84 1.547-.853 3.347-1.28 5.4-1.28zm.04 4.24c-1.147 0-2.107.373-2.88 1.12-.747.747-1.187 1.907-1.32 3.48h8.36c-.027-1.333-.373-2.427-1.04-3.28-.667-.88-1.707-1.32-3.12-1.32zm33.953 1.88c0 1.173-.374 2.173-1.12 3-.72.827-1.8 1.36-3.24 1.6v.16c1.52.187 2.733.707 3.64 1.56.933.853 1.4 1.947 1.4 3.28 0 1.253-.334 2.373-1 3.36-.64.987-1.667 1.76-3.08 2.32-1.414.56-3.267.84-5.56.84h-10.4V18.16h10.4c1.706 0 3.226.187 4.56.56 1.36.347 2.426.933 3.2 1.76.8.827 1.2 1.96 1.2 3.4zm-6.04.48c0-1.333-1.054-2-3.16-2h-4.2v4.32h3.52c1.253 0 2.2-.173 2.84-.52.666-.373 1-.973 1-1.8zm.56 8.8c0-.853-.334-1.467-1-1.84-.667-.4-1.667-.6-3-.6h-3.92v5.16h4.04c1.12 0 2.04-.2 2.76-.6.746-.427 1.12-1.133 1.12-2.12zm20.236-15.44c2.933 0 5.173.64 6.72 1.92 1.573 1.253 2.36 3.187 2.36 5.8V40h-4.16l-1.16-2.96h-.16c-.933 1.173-1.92 2.027-2.96 2.56-1.04.533-2.467.8-4.28.8-1.947 0-3.56-.56-4.84-1.68-1.28-1.147-1.92-2.893-1.92-5.24 0-2.32.813-4.027 2.44-5.12 1.627-1.12 4.067-1.733 7.32-1.84l3.8-.12v-.96c0-1.147-.307-1.987-.92-2.52-.587-.533-1.413-.8-2.48-.8s-2.107.16-3.12.48a23.328 23.328 0 00-3.04 1.12l-1.96-4.04a17.175 17.175 0 013.88-1.44c1.44-.347 2.933-.52 4.48-.52zm.84 12.24c-1.92.053-3.253.4-4 1.04-.747.64-1.12 1.48-1.12 2.52 0 .907.267 1.56.8 1.96.533.373 1.227.56 2.08.56 1.28 0 2.36-.373 3.24-1.12.88-.773 1.32-1.853 1.32-3.24v-1.8l-2.32.08zm29.421-11.8v4.48h-9.12V40h-5.96V18.16h15.08zm9.781 8.64c0 .453-.026 1.013-.08 1.68a52.747 52.747 0 01-.12 2.04 29.435 29.435 0 01-.12 1.84c-.053.533-.093.907-.12 1.12l10.08-15.32h7.16V40h-5.76v-8.72c0-.72.027-1.507.08-2.36.054-.88.107-1.693.16-2.44.08-.773.134-1.36.16-1.76L356.061 40h-7.16V18.16h5.76v8.64z" fill="#212121"/></svg>