<svg width="213" height="75" fill="none" xmlns="http://www.w3.org/2000/svg"><path d="M0 46l22-12.5 22.5 12-23 12.5L0 46z" fill="#4DF317"/><path d="M0 35l22-12.5 22.5 23-23 12.5L0 35z" fill="#1DB61E"/><path d="M0 35l22-12.5L44.5 35l-23 12.5L0 35z" fill="#4DF317"/><path d="M0 24.5L22 12l22.5 23-23 12.5L0 24.5z" fill="#1DB61E"/><path d="M0 24.5L22 12l22 12.5-22 13-22-13z" fill="#4DF317"/><path d="M73.55 20.45a.622.622 0 01-.2.45.54.54 0 01-.4.15H62.5c-.167 0-.25.083-.25.25v7.9c0 .167.083.25.25.25h6c.167 0 .3.067.4.2.133.1.2.233.2.4v4.85a.622.622 0 01-.2.45.54.54 0 01-.4.15h-6c-.167 0-.25.083-.25.25v7.95c0 .167.083.25.25.25h10.45c.167 0 .3.067.4.2.133.1.2.233.2.4v4.85a.622.622 0 01-.2.45.54.54 0 01-.4.15H55.8a.731.731 0 01-.45-.15.731.731 0 01-.15-.45V15.6c0-.167.05-.3.15-.4a.622.622 0 01.45-.2h17.15c.167 0 .3.067.4.2.133.1.2.233.2.4v4.85zM83.874 50c-.367 0-.584-.183-.65-.55l-7.15-33.8-.05-.2c0-.3.183-.45.55-.45h6.45c.4 0 .617.183.65.55l3.45 22c.033.133.083.2.15.2.067 0 .117-.067.15-.2l3.35-22c.033-.367.25-.55.65-.55h6.25c.433 0 .6.217.5.65l-7.2 33.8c-.067.367-.284.55-.65.55h-6.45zm36.014-29.55a.623.623 0 01-.2.45.54.54 0 01-.4.15h-10.45c-.167 0-.25.083-.25.25v7.9c0 .167.083.25.25.25h6c.167 0 .3.067.4.2.133.1.2.233.2.4v4.85a.623.623 0 01-.2.45.54.54 0 01-.4.15h-6c-.167 0-.25.083-.25.25v7.95c0 .167.083.25.25.25h10.45c.167 0 .3.067.4.2.133.1.2.233.2.4v4.85a.623.623 0 01-.2.45.54.54 0 01-.4.15h-17.15a.73.73 0 01-.45-.15.731.731 0 01-.15-.45V15.6c0-.167.05-.3.15-.4a.62.62 0 01.45-.2h17.15c.167 0 .3.067.4.2.133.1.2.233.2.4v4.85zM137.262 50c-.367 0-.6-.167-.7-.5l-3.85-13.8c-.067-.133-.15-.2-.25-.2h-1.7c-.167 0-.25.083-.25.25V49.4a.623.623 0 01-.2.45c-.1.1-.234.15-.4.15h-5.85a.73.73 0 01-.45-.15.731.731 0 01-.15-.45V15.6c0-.167.05-.3.15-.4a.62.62 0 01.45-.2h10.1c1.833 0 3.466.45 4.9 1.35 1.433.867 2.533 2.1 3.3 3.7.8 1.6 1.2 3.433 1.2 5.5 0 1.967-.384 3.7-1.15 5.2-.734 1.5-1.767 2.667-3.1 3.5a.324.324 0 00-.15.15c-.034.033-.034.083 0 .15l4.6 14.75.05.2c0 .333-.184.5-.55.5h-6zm-6.5-28.95c-.167 0-.25.083-.25.25v8.55c0 .167.083.25.25.25h2.25c1.033 0 1.866-.4 2.5-1.2.666-.833 1-1.933 1-3.3 0-1.4-.334-2.5-1-3.3-.634-.833-1.467-1.25-2.5-1.25h-2.25zm34.585-.6a.623.623 0 01-.2.45.54.54 0 01-.4.15h-10.45c-.167 0-.25.083-.25.25v7.9c0 .167.083.25.25.25h6c.167 0 .3.067.4.2.133.1.2.233.2.4v4.85a.623.623 0 01-.2.45.54.54 0 01-.4.15h-6c-.167 0-.25.083-.25.25v7.95c0 .167.083.25.25.25h10.45c.167 0 .3.067.4.2.133.1.2.233.2.4v4.85a.623.623 0 01-.2.45.54.54 0 01-.4.15h-17.15a.73.73 0 01-.45-.15.731.731 0 01-.15-.45V15.6c0-.167.05-.3.15-.4a.62.62 0 01.45-.2h17.15c.167 0 .3.067.4.2.133.1.2.233.2.4v4.85zm12.574 29.95c-1.934 0-3.634-.383-5.1-1.15-1.467-.767-2.6-1.833-3.4-3.2-.8-1.4-1.2-3-1.2-4.8V39.8c0-.167.05-.3.15-.4a.62.62 0 01.45-.2h5.75c.166 0 .3.067.4.2.133.1.2.233.2.4v1.1c0 1.033.266 1.867.8 2.5.533.633 1.2.95 2 .95s1.466-.3 2-.9c.533-.6.8-1.383.8-2.35 0-1-.334-1.85-1-2.55-.667-.733-1.967-1.8-3.9-3.2-1.667-1.2-3.017-2.267-4.05-3.2-1.034-.933-1.917-2.083-2.65-3.45-.734-1.367-1.1-2.95-1.1-4.75 0-2.833.883-5.1 2.65-6.8 1.766-1.7 4.1-2.55 7-2.55 2.933 0 5.283.883 7.05 2.65 1.8 1.767 2.7 4.083 2.7 6.95v1.2a.623.623 0 01-.2.45c-.1.1-.234.15-.4.15h-5.75a.73.73 0 01-.45-.15.731.731 0 01-.15-.45v-1.35c0-1.033-.267-1.85-.8-2.45-.5-.633-1.167-.95-2-.95-.8 0-1.45.3-1.95.9-.5.567-.75 1.367-.75 2.4 0 1 .316 1.883.95 2.65.633.767 1.883 1.833 3.75 3.2 2.066 1.533 3.616 2.783 4.65 3.75 1.066.933 1.883 1.983 2.45 3.15.6 1.133.9 2.5.9 4.1 0 2.933-.9 5.267-2.7 7-1.8 1.733-4.167 2.6-7.1 2.6zM210.245 15c.166 0 .3.067.4.2.133.1.2.233.2.4v4.85a.623.623 0 01-.2.45c-.1.1-.234.15-.4.15h-6.25c-.167 0-.25.083-.25.25v28.1a.623.623 0 01-.2.45c-.1.1-.234.15-.4.15h-5.85a.73.73 0 01-.45-.15.731.731 0 01-.15-.45V21.3c0-.167-.084-.25-.25-.25h-6a.73.73 0 01-.45-.15.731.731 0 01-.15-.45V15.6c0-.167.05-.3.15-.4a.62.62 0 01.45-.2h19.8z" fill="#353535"/><path d="M4.642 72.11c-.785 0-1.492-.169-2.123-.506a3.84 3.84 0 01-1.485-1.419 3.928 3.928 0 01-.539-2.035c0-.748.18-1.423.539-2.024a3.737 3.737 0 011.485-1.419c.63-.345 1.338-.517 2.123-.517.785 0 1.492.172 2.123.517.63.337 1.126.807 1.485 1.408.36.601.539 1.28.539 2.035 0 .755-.18 1.434-.539 2.035a3.84 3.84 0 01-1.485 1.419c-.63.337-1.338.506-2.123.506zm0-1.254c.513 0 .975-.114 1.386-.341.41-.235.733-.557.968-.968.235-.418.352-.884.352-1.397s-.117-.975-.352-1.386a2.458 2.458 0 00-.968-.968 2.743 2.743 0 00-1.386-.352c-.513 0-.975.117-1.386.352-.41.227-.733.55-.968.968a2.74 2.74 0 00-.352 1.386c0 .513.117.979.352 1.397.235.41.557.733.968.968.41.227.873.341 1.386.341zm5.739-4.73h1.375v2.387h2.959v-2.387h1.375V72h-1.375v-2.321h-2.959V72h-1.375v-5.874zm13.04 0V72h-1.374v-4.708h-2.2l-.055 1.166c-.037.777-.11 1.43-.22 1.958-.103.52-.283.935-.54 1.243-.249.3-.593.451-1.033.451-.206 0-.459-.04-.76-.121l.067-1.155c.102.022.19.033.264.033.278 0 .487-.11.627-.33.14-.227.227-.495.264-.803.044-.315.08-.763.11-1.342l.099-2.266h4.752zm4.207-.066c.865 0 1.525.209 1.98.627.462.41.692 1.034.692 1.87V72h-1.297v-.715c-.17.257-.411.455-.727.594-.308.132-.681.198-1.122.198-.44 0-.825-.073-1.154-.22a1.88 1.88 0 01-.77-.627 1.642 1.642 0 01-.265-.913c0-.528.195-.95.584-1.265.396-.323 1.015-.484 1.858-.484h1.518v-.088c0-.41-.124-.726-.373-.946-.242-.22-.605-.33-1.09-.33-.33 0-.656.051-.979.154a2.4 2.4 0 00-.803.429l-.538-1.001a3.338 3.338 0 011.11-.539 4.942 4.942 0 011.376-.187zm-.188 5.016c.345 0 .65-.077.913-.231.272-.161.462-.389.572-.682v-.682h-1.419c-.791 0-1.188.26-1.188.781 0 .25.1.447.297.594.199.147.474.22.826.22zm4.727-4.95h1.375v3.872l3.245-3.872h1.254V72h-1.375v-3.872L33.432 72h-1.265v-5.874zm2.849-.693c-.594 0-1.049-.136-1.364-.407-.308-.279-.466-.682-.473-1.21h.913c.007.264.088.473.242.627.161.154.385.231.671.231.279 0 .499-.077.66-.231.169-.154.257-.363.264-.627h.935c-.007.528-.169.931-.484 1.21-.315.271-.77.407-1.364.407zm5.04.693h1.375v2.387h2.959v-2.387h1.375V72H44.39v-2.321h-2.96V72h-1.374v-5.874zm7.397 2.244h3.025v1.144h-3.025V68.37zm7.159 1.276h-1.067V72H52.17v-5.874h1.375v2.376h1.1l1.738-2.376h1.474l-2.134 2.827L58 72h-1.617l-1.771-2.354zm9.734-3.52l-2.75 6.347c-.257.638-.569 1.085-.935 1.342-.367.264-.81.396-1.331.396-.294 0-.583-.048-.87-.143a1.92 1.92 0 01-.703-.396l.55-1.012a1.501 1.501 0 001.012.407c.242 0 .44-.062.594-.187.161-.125.308-.334.44-.627l.099-.231-2.563-5.896h1.43l1.848 4.345 1.859-4.345h1.32zm4.376-.066c.572 0 1.081.125 1.529.374.454.25.81.601 1.067 1.056.256.455.385.979.385 1.573s-.129 1.122-.385 1.584a2.686 2.686 0 01-1.067 1.056c-.448.25-.957.374-1.53.374-.791 0-1.418-.264-1.88-.792v2.849h-1.375v-8.008h1.309v.77c.227-.279.506-.488.836-.627.337-.14.707-.209 1.11-.209zm-.154 4.84c.506 0 .92-.169 1.243-.506.33-.337.495-.781.495-1.331 0-.55-.165-.994-.495-1.331-.323-.337-.737-.506-1.243-.506-.33 0-.627.077-.891.231-.264.147-.473.36-.627.638a1.969 1.969 0 00-.231.968c0 .367.077.69.23.968.155.279.364.495.628.649.264.147.56.22.89.22zm7.341 1.177a3.443 3.443 0 01-1.639-.385 2.839 2.839 0 01-1.133-1.067 3.027 3.027 0 01-.407-1.562c0-.58.136-1.096.407-1.551.271-.455.645-.81 1.122-1.067.484-.257 1.034-.385 1.65-.385.58 0 1.085.117 1.518.352.44.235.77.572.99 1.012l-1.056.616a1.623 1.623 0 00-.638-.605 1.662 1.662 0 00-.825-.209c-.513 0-.939.169-1.276.506-.337.33-.506.774-.506 1.331 0 .557.165 1.005.495 1.342.337.33.766.495 1.287.495.3 0 .576-.066.825-.198.257-.14.47-.345.638-.616l1.056.616c-.227.44-.56.781-1 1.023-.434.235-.936.352-1.508.352zm3.884-5.951h1.375v3.872l3.245-3.872h1.254V72h-1.375v-3.872L81.058 72h-1.265v-5.874zm14.602 2.816c.367.103.65.271.847.506.206.227.308.502.308.825 0 .36-.12.678-.363.957-.242.271-.575.484-1 .638-.426.154-.91.231-1.453.231-.454 0-.898-.051-1.33-.154a4.802 4.802 0 01-1.178-.462l.396-1.023a3.8 3.8 0 00.968.374c.36.088.719.132 1.078.132.462 0 .822-.07 1.078-.209.264-.147.396-.345.396-.594a.587.587 0 00-.308-.528c-.198-.125-.48-.187-.847-.187h-1.144v-.924h1.034c.345 0 .613-.059.803-.176.198-.117.297-.282.297-.495 0-.213-.117-.381-.352-.506-.234-.125-.557-.187-.968-.187-.586 0-1.206.143-1.859.429l-.352-1.012a5.468 5.468 0 012.332-.539c.499 0 .946.07 1.342.209.396.132.704.323.924.572.228.242.341.52.341.836 0 .286-.088.543-.264.77-.176.22-.418.392-.726.517zm11.584-2.816V72h-1.364v-4.708h-2.893V72h-1.375v-5.874h5.632zm2.021 0h1.375V72H108v-5.874zm.693-.968a.893.893 0 01-.627-.231.789.789 0 01-.253-.594c0-.235.084-.429.253-.583a.87.87 0 01.627-.242c.249 0 .458.077.627.231a.713.713 0 01.253.561.841.841 0 01-.253.616.85.85 0 01-.627.242zm8.975 5.676v2.475h-1.287V72h-4.532v1.309h-1.276v-2.475h.275c.374-.015.627-.253.759-.715.139-.47.231-1.13.275-1.98l.077-2.013h4.84v4.708h.869zm-4.532-2.596a11.842 11.842 0 01-.165 1.65c-.081.425-.227.74-.44.946h2.893v-3.542h-2.255l-.033.946zm10.435-.946h-3.135V72h-1.375v-5.874h4.51v1.166zm3.526 4.785a3.333 3.333 0 01-1.606-.385 2.853 2.853 0 01-1.122-1.067 3.092 3.092 0 01-.396-1.562c0-.58.132-1.096.396-1.551.271-.455.645-.81 1.122-1.067a3.333 3.333 0 011.606-.385c.601 0 1.14.128 1.617.385.477.257.847.612 1.111 1.067.271.455.407.972.407 1.551 0 .58-.136 1.1-.407 1.562-.264.455-.634.81-1.111 1.067a3.357 3.357 0 01-1.617.385zm0-1.177c.506 0 .924-.169 1.254-.506.33-.337.495-.781.495-1.331 0-.55-.165-.994-.495-1.331-.33-.337-.748-.506-1.254-.506s-.924.169-1.254.506c-.323.337-.484.781-.484 1.331 0 .55.161.994.484 1.331.33.337.748.506 1.254.506zm9.096-3.608h-2.057V72h-1.375v-4.708h-2.068v-1.166h5.5v1.166zm3.523 4.785a3.333 3.333 0 01-1.606-.385 2.853 2.853 0 01-1.122-1.067 3.092 3.092 0 01-.396-1.562c0-.58.132-1.096.396-1.551.271-.455.645-.81 1.122-1.067a3.333 3.333 0 011.606-.385c.601 0 1.14.128 1.617.385.477.257.847.612 1.111 1.067.271.455.407.972.407 1.551 0 .58-.136 1.1-.407 1.562-.264.455-.634.81-1.111 1.067a3.357 3.357 0 01-1.617.385zm0-1.177c.506 0 .924-.169 1.254-.506.33-.337.495-.781.495-1.331 0-.55-.165-.994-.495-1.331-.33-.337-.748-.506-1.254-.506s-.924.169-1.254.506c-.323.337-.484.781-.484 1.331 0 .55.161.994.484 1.331.33.337.748.506 1.254.506zm8.915-1.958c.726.22 1.089.69 1.089 1.408 0 .528-.198.935-.594 1.221-.396.286-.982.429-1.76.429h-2.992v-5.874h2.871c.719 0 1.28.132 1.683.396.404.264.605.638.605 1.122 0 .3-.08.561-.242.781-.154.22-.374.392-.66.517zm-2.948-.363h1.441c.712 0 1.067-.246 1.067-.737 0-.477-.355-.715-1.067-.715h-1.441v1.452zm1.573 2.42c.756 0 1.133-.246 1.133-.737 0-.257-.088-.447-.264-.572-.176-.132-.451-.198-.825-.198h-1.617v1.507h1.573zm6.536-1.353h-1.067V72h-1.375v-5.874h1.375v2.376h1.1l1.738-2.376h1.474l-2.134 2.827L157.18 72h-1.617l-1.771-2.354zm4.523-3.52h1.375v3.872l3.245-3.872h1.254V72h-1.375v-3.872L159.58 72h-1.265v-5.874zm17.363 4.708v2.475h-1.287V72h-4.532v1.309h-1.276v-2.475h.275c.374-.015.627-.253.759-.715.14-.47.231-1.13.275-1.98l.077-2.013h4.84v4.708h.869zm-4.532-2.596a11.842 11.842 0 01-.165 1.65c-.08.425-.227.74-.44.946h2.893v-3.542h-2.255l-.033.946zm8.543 3.839a3.333 3.333 0 01-1.606-.385 2.866 2.866 0 01-1.122-1.067 3.092 3.092 0 01-.396-1.562c0-.58.132-1.096.396-1.551.272-.455.646-.81 1.122-1.067a3.333 3.333 0 011.606-.385c.602 0 1.141.128 1.617.385.477.257.847.612 1.111 1.067.272.455.407.972.407 1.551 0 .58-.135 1.1-.407 1.562-.264.455-.634.81-1.111 1.067-.476.257-1.015.385-1.617.385zm0-1.177c.506 0 .924-.169 1.254-.506.33-.337.495-.781.495-1.331 0-.55-.165-.994-.495-1.331-.33-.337-.748-.506-1.254-.506s-.924.169-1.254.506c-.322.337-.484.781-.484 1.331 0 .55.162.994.484 1.331.33.337.748.506 1.254.506zm12.066-2.915c.462.147.821.385 1.078.715.264.323.396.704.396 1.144 0 .462-.151.865-.451 1.21-.301.337-.704.598-1.21.781a4.718 4.718 0 01-1.639.275c-.514 0-1.031-.07-1.551-.209a5.251 5.251 0 01-1.43-.649l.462-1.045a4.163 4.163 0 002.343.704c.579 0 1.059-.114 1.441-.341.388-.227.583-.539.583-.935a.857.857 0 00-.418-.77c-.279-.176-.664-.264-1.155-.264h-1.793v-1.122h1.683c.425 0 .759-.088 1.001-.264a.838.838 0 00.363-.715c0-.36-.165-.638-.495-.836-.323-.198-.737-.297-1.243-.297-.345 0-.701.051-1.067.154a3.984 3.984 0 00-1.034.429l-.451-1.155c.396-.213.814-.37 1.254-.473.447-.11.891-.165 1.331-.165.572 0 1.096.088 1.573.264.484.176.869.429 1.155.759.286.323.429.704.429 1.144 0 .381-.103.715-.308 1.001a1.975 1.975 0 01-.847.66zm10.102-3.685V72h-1.43v-3.3h-3.982V72h-1.43v-7.7h1.43v3.179h3.982V64.3h1.43zm5.889 7.81c-.784 0-1.492-.169-2.123-.506a3.85 3.85 0 01-1.485-1.419 3.931 3.931 0 01-.539-2.035c0-.748.18-1.423.539-2.024a3.746 3.746 0 011.485-1.419c.631-.345 1.339-.517 2.123-.517.785 0 1.493.172 2.123.517a3.757 3.757 0 011.485 1.408c.36.601.539 1.28.539 2.035 0 .755-.179 1.434-.539 2.035a3.836 3.836 0 01-1.485 1.419c-.63.337-1.338.506-2.123.506zm0-1.254a2.81 2.81 0 001.386-.341 2.55 2.55 0 00.968-.968 2.8 2.8 0 00.352-1.397 2.74 2.74 0 00-.352-1.386 2.451 2.451 0 00-.968-.968 2.74 2.74 0 00-1.386-.352c-.513 0-.975.117-1.386.352-.41.227-.733.55-.968.968a2.75 2.75 0 00-.352 1.386c0 .513.118.979.352 1.397.235.41.558.733.968.968.411.227.873.341 1.386.341z" fill="#212121"/></svg>