<svg width="33" height="33" fill="none" xmlns="http://www.w3.org/2000/svg"><path d="M29.962 2.063H15.464A3.041 3.041 0 0012.427 5.1v9.3l-2.692-1.338a5.837 5.837 0 00-.277-.129 4.574 4.574 0 001.278-3.173 4.596 4.596 0 00-4.591-4.59 4.596 4.596 0 00-4.592 4.59 4.58 4.58 0 001.571 3.454A6.119 6.119 0 000 18.562v3.107c0 1.337.868 2.476 2.071 2.88v5.405c0 .533.433.966.967.966H9.25a.967.967 0 00.967-.966V19.09l3.095 1.547c1.185.592 2.792.24 3.518-1.109h3.466l-3.67 10.094a.967.967 0 00.578 1.239c.574.209 1.084-.151 1.24-.578l3.91-10.755h.678l3.95 10.758c.15.408.657.789 1.241.574a.967.967 0 00.575-1.24l-3.707-10.092h4.87A3.038 3.038 0 0033 16.491V5.101a3.038 3.038 0 00-3.038-3.038zM3.487 9.76a2.66 2.66 0 012.657-2.657A2.66 2.66 0 018.802 9.76a2.66 2.66 0 01-2.658 2.658A2.66 2.66 0 013.487 9.76zm11.692 8.736a.718.718 0 01-1 .413l-4.496-2.247a.967.967 0 00-1.399.865v11.46h-4.28V23.74a.967.967 0 00-.966-.967 1.105 1.105 0 01-1.104-1.104v-3.107a4.212 4.212 0 014.21-4.21H7c.648 0 1.295.152 1.873.44l6.017 2.993a.58.58 0 01.29.71zm15.887-2.005c0 .296-.114.573-.323.781-.205.206-.49.324-.78.324H17.04l-.005-.016 2.4-4.798a.967.967 0 00-1.73-.865l-2.046 4.092-1.3-.647V5.1c0-.608.495-1.104 1.104-1.104h14.498c.291 0 .576.118.782.324.208.208.322.485.322.78v11.391z" fill="#fff"/><path d="M27.891 6.205H17.536a.967.967 0 100 1.933H27.89a.967.967 0 000-1.933zm0 3.625h-5.178a.967.967 0 000 1.933h5.178a.967.967 0 000-1.934zm0 3.624h-5.178a.967.967 0 000 1.933h5.178a.967.967 0 000-1.933z" fill="#fff"/></svg>