<svg width="41" height="42" fill="none" xmlns="http://www.w3.org/2000/svg"><g clip-path="url(#clip0)" fill="#fff"><path d="M20.5 7.304c-3.44 0-6.24 2.867-6.24 6.391 0 3.525 2.8 6.392 6.24 6.392 3.44 0 6.24-2.867 6.24-6.392 0-3.524-2.8-6.39-6.24-6.39zm0 10.957c-2.456 0-4.456-2.05-4.456-4.566s2-4.565 4.456-4.565c2.456 0 4.456 2.05 4.456 4.565 0 2.517-2 4.566-4.456 4.566zm12.478-3.652c-2.456 0-4.456 2.048-4.456 4.565 0 2.516 2 4.565 4.456 4.565 2.457 0 4.457-2.049 4.457-4.565 0-2.517-2-4.565-4.457-4.565zm0 7.304c-1.474 0-2.674-1.229-2.674-2.74 0-1.51 1.2-2.738 2.674-2.738 1.475 0 2.674 1.229 2.674 2.739 0 1.51-1.2 2.739-2.674 2.739zm-24.83-7.304c-2.458 0-4.456 2.048-4.456 4.565 0 2.516 2 4.565 4.456 4.565 2.457 0 4.457-2.049 4.457-4.565 0-2.517-1.999-4.565-4.457-4.565zm0 7.304c-1.474 0-2.674-1.229-2.674-2.74 0-1.51 1.2-2.738 2.674-2.738 1.475 0 2.674 1.229 2.674 2.739 0 1.51-1.2 2.739-2.674 2.739zm12.352 0c-6.389 0-11.587 5.325-11.587 11.87 0 .504.4.913.891.913a.903.903 0 00.892-.913c0-5.539 4.397-10.044 9.804-10.044s9.804 4.505 9.804 10.044c0 .504.4.913.892.913a.903.903 0 00.89-.913c0-6.545-5.197-11.87-11.586-11.87z"/><path d="M32.978 25.565a7.88 7.88 0 00-4.155 1.187.929.929 0 00-.3 1.255.88.88 0 001.225.306 6.104 6.104 0 013.23-.922c3.44 0 6.24 2.867 6.24 6.392 0 .504.399.913.89.913a.903.903 0 00.892-.913c0-4.53-3.599-8.218-8.022-8.218zM12.175 26.75a7.884 7.884 0 00-4.153-1.185C3.599 25.565 0 29.252 0 33.783c0 .504.4.913.891.913a.903.903 0 00.892-.913c0-3.525 2.798-6.392 6.239-6.392a6.11 6.11 0 013.228.92.88.88 0 001.225-.306.925.925 0 00-.3-1.255z"/></g><defs><clipPath id="clip0"><path fill="#fff" d="M0 0h41v42H0z"/></clipPath></defs></svg>