<svg width="38" height="38" fill="none" xmlns="http://www.w3.org/2000/svg"><path d="M38 0H0v38h38V0z" fill="#6F3FAA"/><path d="M31.018 12.249l-.007-.03c-.607-2.454-3.344-5.087-5.857-5.635l-.029-.006a32.546 32.546 0 00-12.25 0l-.03.006c-2.512.548-5.248 3.181-5.856 5.635l-.007.03a23.978 23.978 0 000 10.33l.007.03c.582 2.349 3.115 4.86 5.534 5.552v2.74c0 .99 1.208 1.478 1.895.762l2.776-2.885a32.025 32.025 0 007.931-.529l.029-.005c2.513-.548 5.25-3.181 5.857-5.636l.007-.03a23.99 23.99 0 000-10.329zm-2.196 9.832c-.405 1.601-2.483 3.592-4.134 3.96-2.162.41-4.34.586-6.516.526a.154.154 0 00-.116.046l-2.026 2.08-2.155 2.213a.252.252 0 01-.435-.174v-4.538a.156.156 0 00-.127-.153h-.001c-1.651-.368-3.728-2.359-4.134-3.96a21.76 21.76 0 010-9.335c.406-1.601 2.483-3.591 4.134-3.96a30.312 30.312 0 0111.376 0c1.652.369 3.729 2.359 4.134 3.96a21.735 21.735 0 010 9.335z" fill="#fff"/><path d="M22.592 24.176c-.254-.077-.496-.129-.72-.222-2.328-.966-4.47-2.212-6.168-4.122-.965-1.086-1.72-2.312-2.358-3.61-.303-.615-.558-1.254-.818-1.89-.238-.579.112-1.177.48-1.614a3.79 3.79 0 011.27-.954c.375-.18.745-.076 1.02.242.592.688 1.137 1.41 1.578 2.208.27.49.196 1.09-.295 1.424-.12.081-.228.176-.34.268-.097.08-.189.161-.256.27a.74.74 0 00-.05.65c.607 1.665 1.628 2.96 3.304 3.657.268.111.537.241.846.205.518-.06.685-.628 1.048-.924.354-.29.807-.294 1.189-.052.381.241.752.5 1.12.763.36.257.72.51 1.053.802.32.283.43.653.25 1.035-.33.701-.81 1.285-1.503 1.657-.196.105-.43.14-.65.207-.254-.077.22-.068 0 0zm-3.585-13.214c3.044.086 5.545 2.106 6.081 5.116.091.513.124 1.038.164 1.558.018.22-.107.427-.343.43-.244.003-.354-.201-.37-.42-.03-.433-.053-.868-.112-1.298-.316-2.268-2.124-4.145-4.382-4.547-.34-.06-.687-.077-1.031-.113-.218-.023-.503-.036-.55-.306-.041-.227.15-.408.366-.42.059-.002.118 0 .177 0 3.044.086-.06 0 0 0z" fill="#fff"/><path d="M23.634 16.96c-.005.039-.008.128-.03.212-.081.306-.545.344-.651.036a.919.919 0 01-.037-.295c0-.645-.141-1.289-.466-1.85a3.443 3.443 0 00-1.444-1.355 4.155 4.155 0 00-1.151-.353c-.174-.029-.35-.046-.523-.07-.212-.03-.325-.164-.315-.373.01-.195.152-.335.365-.323.699.04 1.374.19 1.995.52 1.263.669 1.985 1.725 2.195 3.135.01.064.025.127.03.191.012.158.02.317.032.526-.005.038-.013-.21 0 0z" fill="#fff"/><path d="M21.74 16.887c-.255.004-.391-.137-.417-.37-.019-.163-.033-.328-.072-.486a1.369 1.369 0 00-.505-.793 1.317 1.317 0 00-.411-.198c-.187-.054-.381-.04-.568-.085-.202-.05-.314-.214-.282-.404a.366.366 0 01.386-.294c1.18.085 2.024.696 2.144 2.086.009.098.019.201-.003.295-.037.16-.156.241-.272.249-.255.004.116-.008 0 0z" fill="#fff"/></svg>