<svg width="30" height="30" fill="none" xmlns="http://www.w3.org/2000/svg"><g clip-path="url(#clip0)" fill="#fff"><path d="M15 12.144c-3.557 0-6.811 1.809-8.704 4.839a1.568 1.568 0 002.659 1.66A7.094 7.094 0 0115 15.278c2.47 0 4.73 1.258 6.046 3.365a1.565 1.565 0 002.16.5 1.568 1.568 0 00.498-2.16c-1.892-3.03-5.145-4.84-8.704-4.84z"/><path d="M29.762 13.209C26.558 8.076 21.04 5.013 15 5.013c-6.04 0-11.557 3.063-14.762 8.196a1.567 1.567 0 102.659 1.66C5.525 10.659 10.05 8.147 15 8.147c4.951 0 9.476 2.513 12.104 6.722a1.566 1.566 0 102.659-1.66zM15 24.987a2.58 2.58 0 100-5.158 2.58 2.58 0 000 5.158z"/></g><defs><clipPath id="clip0"><path fill="#fff" d="M0 0h30v30H0z"/></clipPath></defs></svg>